#!OML:ASF F:\VICON\USERDATA\INSTALL\rory3\rory3.ASF
:FULLY-SPECIFIED
:DEGREES
19
root -0.064409528742711 17.737005893707785 -12.788215348222122 -1.3130035695900926 5.769886792726593 -2.9648405829618873
lfemur -25.09290401994306 -2.775902455148725 -23.443193253805745
ltibia 38.7268803505856
lfoot -12.231262828116737 -15.055076125662081
ltoes 2.195768592153783
rfemur -5.632811390357547 0.32586374554692066 25.13099975518682
rtibia 80.48155400858992
rfoot 15.57100891915305 -9.094636480587372
rtoes 11.232547049983514
lowerback 14.838552787429057 1.3394191376769653 2.4416911586381804
upperback 0.11210715636871438 2.240637725644467 0.7228752270127441
thorax -7.865319291207072 1.0041911403212314 -0.9528103345496972
lowerneck -18.038161910577376 -5.144125982160858 -1.725702596497614
upperneck 11.37302664646668 -7.240597686030215 4.8315699857093914
head 6.793052811482292 -3.152533773642543 0.965302672605068
lclavicle 4.28748951534592e-15 5.758951862286343e-17
lhumerus -60.69019633096504 -9.93659458767056 98.26822955771783
lradius 107.4873097212311
lwrist 27.500222018852046
lhand -30.405604838638087 2.3270457992159805
lfingers 7.125019999999998
lthumb -3.709015207070731 32.28623412358001
rclavicle 4.28748951534592e-15 5.758951862286343e-17
rhumerus -41.45235661160428 18.402197726316885 -102.66918491034824
rradius 101.076910918012
rwrist -8.14666796825038
rhand -23.90795527785012 38.85681539173207
rfingers 7.125019999999998
rthumb 2.566356406421031 8.788616252503248
20
root -0.06873880422611245 17.535592356833366 -11.906629196412064 -1.0472562997613997 5.511283288181235 -1.6097361893294506
lfemur -23.82353183250359 -3.0645111162545544 -25.089553169876705
ltibia 42.38954040699082
lfoot -18.473908279267793 -11.491439519874717
ltoes 5.732873154855687
rfemur -10.396171675288898 -1.1945917573469274 21.77188518122748
rtibia 85.50173589370715
rfoot 15.493908152628519 -7.236579264893438
rtoes 9.960783712750516
lowerback 15.239096988789221 1.3019823411450089 0.6208643949667174
upperback 0.2984462748086131 1.8337197978713025 0.46905118760338893
thorax -7.85948248173274 0.8737379868464562 -0.34835969796629235
lowerneck -18.656406753554084 -5.074227945571512 -1.3905923282841648
upperneck 11.18363151927347 -7.190401306357884 4.753246832553528
head 6.895003847439785 -3.1131570949691536 0.895503423975699
lclavicle 4.28748943075147e-15 5.758953213692767e-17
lhumerus -56.501537693648 -11.053060407854554 98.29662278066229
lradius 107.7383508429154
lwrist 28.53292834676899
lhand -29.465556763879857 1.7321269261778158
lfingers 7.125019999999998
lthumb -2.8011553381049583 31.68636233224165
rclavicle 4.28748943075147e-15 5.758953213692767e-17
rhumerus -42.30399116278618 17.729431683389105 -102.74233205534928
rradius 99.07391566901146
rwrist -7.184603624520372
rhand -26.172474638265594 33.962250390716
rfingers 7.125019999999998
rthumb 0.37870624857790514 3.7044939312319127
21
root -0.17600130767098704 17.13021380637374 -1.824642771150133 2.77507652936447 2.5075130045739664 1.0397879779744361
lfemur -21.205964864262405 -2.3075544087048967 -27.418896167104265
ltibia 42.215677542053776
lfoot -23.603769505426342 -3.0809272847300724
ltoes 3.690651070038573
rfemur -16.344024497724003 -2.031106349981072 18.25144237676838
rtibia 87.28964180922816
rfoot 12.612425909630351 -6.289413761155066
rtoes 12.903138497829165
lowerback 15.70792709881342 1.6271003703801197 -1.7809424552693354
upperback 0.017467797252766593 1.5183630052086872 -0.11789466732683263
thorax -8.635407381414712 0.9999554856953301 0.3812407154753734
lowerneck -19.19246822576599 -4.91371532865859 -1.91889717339913
upperneck 9.854978034631236 -6.830723922960509 4.4478146033028025
head 6.739829857808167 -2.9439871565451554 0.892709679462332
lclavicle 4.2874894013700446e-15 5.758947333056407e-17
lhumerus -48.8892137371565 -13.47725401434063 97.41097161137886
lradius 107.66615303281169
lwrist 28.43441726129974
lhand -29.622398438304703 2.7619074968033517
lfingers 7.125019999999998
lthumb -2.9726114566378925 32.72722942707484
rclavicle 4.287456057690801e-15 5.756553902658748e-17
rhumerus -43.32920876209329 15.24881704046848 -103.24958806546664
rradius 97.0508931752022
rwrist -7.501988950157621
rhand -22.022465136992295 37.283034571943794
rfingers 7.125019999999998
rthumb 4.776366427966955 7.639673451267201
22
root -0.14294777371787104 17.02686093030273 0.33930648606942704 3.50104353505986 2.312225174551648 1.3723832582875448
lfemur -18.617492875760696 -2.180879225512019 -28.13993136455332
ltibia 40.78325436718026
lfoot -28.613800995302334 1.4312815773760565
ltoes 3.233771804964059
rfemur -21.842857037546224 -2.3292643612691117 17.503285381010254
rtibia 87.65287297600274
rfoot 11.866292807926484 -4.739218612384324
rtoes 12.233728610496994
lowerback 15.910742834151366 1.5894995438918071 -3.0110274254009113
upperback -0.01608470374331905 1.3402090455526778 -0.2473049502202227
thorax -8.76549258479626 0.851224378923929 0.6259010808274836
lowerneck -19.580951426394716 -4.699813711168725 -1.946197036779355
upperneck 8.963624997685438 -6.421013295199741 4.406309235699316
head 6.477834309163841 -2.752588929638099 0.9680248539358929
lclavicle 4.2874894013714945e-15 5.758947333160489e-17
lhumerus -42.772977534405264 -14.961481351775387 96.2916626828129
lradius 107.83924311534746
lwrist 27.7403666843578
lhand -29.686253214595613 3.0291738129936827
lfingers 7.125019999999998
lthumb -3.08369191610544 32.96779903066179
rclavicle 4.287456057708127e-15 5.756553903902374e-17
rhumerus -44.922295117615384 13.741784301380667 -103.12226300127564
rradius 96.20015882645781
rwrist -8.393792210361813
rhand -21.279672164902344 37.690307116844174
rfingers 7.125019999999998
rthumb 5.565448699646643 9.099493424897508
23
root -0.10048599011833304 17.046213704809535 1.6488911699683868 3.9946320419589973 2.2611290025364505 1.1884559156643282
lfemur -15.773125762992404 -2.1583332782724995 -28.014902125746826
ltibia 39.598983564493274
lfoot -28.80375205290642 1.7744070642889458
ltoes 1.9774151787143062
rfemur -27.276174062131133 -3.045701894904198 17.824556545629008
rtibia 86.34746982833575
rfoot 10.426271975729591 -3.2783221556451103
rtoes 9.250132832978059
lowerback 15.652453702451465 1.3015988396454852 -3.302070575114066
upperback -0.10731264641754645 0.7885839397814934 -0.24385692793589575
thorax -8.700306246792586 0.6716184121479695 0.9231750154347278
lowerneck -20.034359194341512 -4.5201362239443545 -1.9054270103670548
upperneck 8.488950147993318 -6.06721954859586 4.26553693527508
head 6.3602387535714255 -2.5617294388573963 1.0066312472847438
lclavicle 4.287489401372654e-15 5.758947333243741e-17
lhumerus -38.356897024767314 -14.895142473755252 95.45010143134415
lradius 108.25426361555328
lwrist 27.062933746996624
lhand -29.915196126507674 3.47324357846604
lfingers 7.125019999999998
lthumb -3.3491158043726568 33.40282665358782
rclavicle 4.287456057647896e-15 5.756553899578952e-17
rhumerus -46.65683882220413 13.240619000118874 -102.92821312228769
rradius 96.60297903241873
rwrist -9.483976285016837
rhand -21.17544609470476 36.506134961547986
rfingers 7.125019999999998
rthumb 4.813973140413057 7.003403340691103
24
root -0.04283310400037521 17.14522175631568 1.9902864979498531 4.469290006254387 2.202847870061371 0.8107158840401749
lfemur -13.469941569420396 -2.3227966751904408 -28.08628222122853
ltibia 38.05349807547608
lfoot -26.834172753852773 2.214280230976259
ltoes 1.265350472962333
rfemur -31.46249080709844 -4.011709317875322 18.674449798629453
rtibia 83.56557294455834
rfoot 8.459888729215006 -2.134851889325029
rtoes 6.968516833186808
lowerback 15.279606305219993 0.9709073239523734 -3.1701533967619984
upperback -0.20072542534246807 0.12572363280083843 -0.06562665638795817
thorax -8.67490682191393 0.4135557150003538 1.2662284181135584
lowerneck -20.183501755655787 -4.23544679642885 -1.8452892114487724
upperneck 8.64646465957014 -5.697897343219766 4.147664097778774
head 6.333117628080016 -2.389644755471976 0.996784818034993
lclavicle 4.287489401380164e-15 5.758947333782783e-17
lhumerus -35.447046027930156 -14.462508868999448 94.84300800905926
lradius 108.82106112787082
lwrist 27.116492823461545
lhand -30.30083961752384 3.60427410129341
lfingers 7.125019999999998
lthumb -3.7275924286131463 33.617103499350236
rclavicle 4.287456057732439e-15 5.756553905647533e-17
rhumerus -48.280120864025456 13.213067409540852 -102.75578740671874
rradius 97.607991894409
rwrist -9.88353161307772
rhand -21.02990359325092 36.44258019666444
rfingers 7.125019999999998
rthumb 5.115177396339452 6.692438651925637
25
root -0.016270480002356924 17.262654870743624 2.342344636118815 4.791437644826413 1.9844874252692013 0.7216210221160999
lfemur -11.092594156016744 -2.2765144826876336 -28.035129652904487
ltibia 35.67426954322383
lfoot -23.773339337710027 2.009596846021193
ltoes -2.6033144169747757
rfemur -33.791713166239546 -3.748707844472489 19.745718209926533
rtibia 79.36671873162562
rfoot 6.03216870111847 -1.3450860838754766
rtoes 4.514567179865194
lowerback 14.822765698785885 0.556759314333043 -2.9324301605586323
upperback -0.40490438674145146 -0.5369717966366627 0.2081745843537841
thorax -8.584088699738945 0.014495372246540184 1.6306665012860755
lowerneck -20.469425276035157 -4.006453993110639 -1.8253496799753925
upperneck 9.032795123500174 -5.373699591837784 3.979345544280664
head 6.402471553051538 -2.254900869878357 0.9892199941372664
lclavicle 4.2874894013833424e-15 5.758947334010909e-17
lhumerus -33.661152920508506 -13.957080272744626 94.31032505575818
lradius 109.57818774547478
lwrist 27.94701566857691
lhand -30.34330502729863 3.6646383791613126
lfingers 7.125019999999998
lthumb -3.7936510657306948 33.725199100636836
rclavicle 4.287456057693048e-15 5.756553902819999e-17
rhumerus -49.76049214955284 13.295792705540675 -102.58163143356585
rradius 98.82562940196073
rwrist -9.202625888483471
rhand -21.119693265661265 35.9576450913727
rfingers 7.125019999999998
rthumb 5.483647072799484 6.7315553344179975
